<svg width="13" height="18" fill="none" xmlns="http://www.w3.org/2000/svg"><path fill-rule="evenodd" clip-rule="evenodd" d="m11.586 16.918-7.714.886c-1.068-1.056-3.76-3.902-3.76-5.656 0-2.6 1.558-2.887 1.558-2.887l.934 2.087.464-.243c-.556-3.282-1.156-6.94-1.466-9.25C1.402.351 3.558.12 3.854 1.791c.224 1.274.958 5.908.958 5.908l.656.014s.108-5.386.096-6.46c-.02-1.518 2.17-1.69 2.2.012.014 1.172.108 6.6.108 6.6l.522.03s.664-4.812.8-5.866C9.38.523 11.656.703 11.45 2.391c-.14 1.138-.842 5.896-.842 5.896s1.454.438 2.268 1.348c-.778 2.447-1.29 7.283-1.29 7.283Z" fill="#000"/></svg>