<svg width="34" height="16" fill="none" xmlns="http://www.w3.org/2000/svg"><g clip-path="url(#a)" fill-rule="evenodd" clip-rule="evenodd" fill="#000"><path d="m30.11 16.061-6.634-.082c-.31-1.486-2.19-4.522-5.761-6.074.623-1.572 1.692-1.775 3.067-1.287.248.089.875.414 1.32.608.057.228.334 1.223.334 1.223l.448-.07c-.003-1.274.002-5.087.126-8.844.046-1.36 1.876-1.331 1.95.19.056 1.159.087 5.35.087 5.35l.584.087s.638-4.788.749-5.749c.155-1.354 2.123-1.258 1.956.26-.12 1.044-.727 6.055-.727 6.055l.449.184s1.265-4.456 1.5-5.38c.334-1.319 2.22-.917 1.844.56-.252.999-1.577 5.615-1.577 5.615l.404.205s1.601-3.14 1.918-3.827c.503-1.117 2.134-.36 1.56.89a56.595 56.595 0 0 0-3.596 10.086ZM5.312 16.481l6.618-.3c.253-1.455 1.98-4.468 5.4-6.092-.657-1.51-1.702-1.67-3.023-1.15-.238.092-.837.43-1.262.634-.049.223-.285 1.2-.285 1.2l-.438-.055c-.038-1.23-.169-4.945-.412-8.592-.09-1.321-1.693-1.26-1.716.22-.016 1.127.047 5.21.047 5.21l-.434.083s-.775-4.633-.913-5.558C8.7.769 6.912.86 7.13 2.33c.151 1.013.913 5.915.913 5.915l-.35.138S6.308 4.03 6.052 3.14c-.37-1.271-2.056-.84-1.645.585.279.96 1.717 5.4 1.717 5.4l-.344.178C5.206 8.139 3.86 5.41 3.632 4.878c-.472-1.097-2.084-.392-1.538.83.556 1.256 1.472 3.222 2.038 4.442l-.349.18S2.366 8.113 1.961 7.497c-.58-.895-1.972-.174-1.251.878 2.077 3.033 4.602 8.105 4.602 8.105Z"/></g><defs><clipPath id="a"><path fill="#fff" d="M0 0h34v16H0z"/></clipPath></defs></svg>