<svg width="29" height="17" fill="none" xmlns="http://www.w3.org/2000/svg"><g clip-path="url(#a)" fill-rule="evenodd" clip-rule="evenodd" fill="#000"><path d="m3.347 16.087 6.72-.318c.765-1.052 2.67-3.86 2.426-5.36-.363-2.223-1.735-2.25-1.735-2.25l-.507 1.913-.431-.142c.018-2.884.021-6.095-.036-8.113C9.746.503 7.87.605 7.85 2.076c-.014 1.12.004 5.185.004 5.185l-.559.103s-.843-4.59-.982-5.51c-.195-1.3-2.091-1.142-1.88.317.152 1.004.828 5.658.828 5.658l-.442.099S3.58 3.906 3.317 3.024c-.369-1.262-2.29-.791-1.878.624C1.717 4.6 2.98 8.57 2.98 8.57s-1.182.578-1.751 1.47c1.006 1.982 2.118 6.046 2.118 6.046ZM24.858 15.672l-6.635-.082c-.31-1.486-2.19-4.522-5.76-6.074.622-1.572 1.691-1.775 3.067-1.287.247.089.875.414 1.319.608.058.228.334 1.223.334 1.223l.449-.07a272.42 272.42 0 0 1 .125-8.844c.047-1.361 1.876-1.331 1.951.19.056 1.159.086 5.35.086 5.35l.584.087s.638-4.788.75-5.749c.155-1.354 2.123-1.259 1.956.26-.12 1.044-.727 6.055-.727 6.055l.448.183s1.266-4.456 1.5-5.379c.334-1.319 2.22-.917 1.844.56-.251.999-1.577 5.615-1.577 5.615l.405.205s1.6-3.14 1.918-3.827c.503-1.117 2.134-.36 1.56.89a56.588 56.588 0 0 0-3.597 10.086Z"/></g><defs><clipPath id="a"><path fill="#fff" transform="translate(0 .015)" d="M0 0h29v16H0z"/></clipPath></defs></svg>