<svg width="34" height="17" fill="none" xmlns="http://www.w3.org/2000/svg"><g clip-path="url(#a)" fill-rule="evenodd" clip-rule="evenodd" fill="#000"><path d="m29.641 16.384-6.635-.082c-.31-1.486-2.19-4.522-5.76-6.074.622-1.572 1.691-1.775 3.067-1.287.247.089.875.414 1.319.608.057.228.334 1.224.334 1.224l.449-.07c-.003-1.275.002-5.088.125-8.845.047-1.36 1.876-1.331 1.951.19.056 1.159.086 5.35.086 5.35l.584.087s.638-4.788.75-5.749c.155-1.354 2.123-1.258 1.955.26-.12 1.044-.726 6.055-.726 6.055l.448.184s1.266-4.456 1.5-5.38c.334-1.319 2.22-.917 1.844.56-.251.999-1.577 5.615-1.577 5.615l.405.205s1.6-3.14 1.917-3.827c.504-1.117 2.135-.36 1.56.89a56.588 56.588 0 0 0-3.596 10.086ZM4.359 16.384l6.635-.082c.31-1.486 2.19-4.522 5.76-6.074-.622-1.572-1.691-1.775-3.067-1.287-.247.089-.875.414-1.319.608-.057.228-.334 1.224-.334 1.224l-.449-.07c.003-1.275-.002-5.088-.125-8.845-.047-1.36-1.876-1.331-1.951.19-.056 1.159-.086 5.35-.086 5.35l-.584.087s-.638-4.788-.75-5.749C7.935.382 5.967.478 6.135 1.996c.12 1.044.726 6.055.726 6.055l-.448.184s-1.266-4.456-1.5-5.38c-.334-1.319-2.22-.917-1.844.56.251.999 1.577 5.615 1.577 5.615l-.405.205s-1.6-3.14-1.917-3.827c-.504-1.117-2.135-.36-1.56.89a56.587 56.587 0 0 1 3.596 10.086Z"/></g><defs><clipPath id="a"><path fill="#fff" transform="translate(0 .574)" d="M0 0h34v16H0z"/></clipPath></defs></svg>