<svg width="18" height="18" fill="none" xmlns="http://www.w3.org/2000/svg"><g clip-path="url(#a)"><path fill-rule="evenodd" clip-rule="evenodd" d="M9.315 18C-3.356 18-2.785 0 9.11 0c11.854 0 11.784 18 .205 18ZM9.098 1.209a9.282 9.282 0 0 0-1.706.155L7.609 2.6 5.005 4.436l-2.287-.14a7.597 7.597 0 0 0-.6.986l.479 4.463 1.411 1.802-1.448 2.04c1.29 1.877 3.513 3.204 6.712 3.204 4.606 0 7.106-3.295 7.47-6.852l-1.082-.977-1.585-.6-.258.39.615.642.476.072.205.685-1.497.752-1.025-1.776-.355.8.773 1.69.95.275-1.53.815-1.994 2.842-1.694.133-.371-1.631.281-2.404-1.942-.514-.64-1.524.306-1.468 1.845-.753 1.745.993.921-.3 1.372.37.312-1.74-1.766-.58-.02 1.133-1.122-.051-.096-1.199-1.387.304.105-1.054-.59-.68.897-.816 1.46.815.458-.964 1.157-.49.77.339.784-.157.338-.816c-1.175-.803-2.657-1.286-4.46-1.286Z" fill="#3a3a3a"/></g><defs><clipPath id="a"><path fill="#fff" d="M0 0h18v18H0z"/></clipPath></defs></svg>