<svg width="28" height="16" fill="none" xmlns="http://www.w3.org/2000/svg"><g clip-path="url(#a)" fill-rule="evenodd" clip-rule="evenodd" fill="rgb(3, 104, 104)"><path d="m2.107 15.974 6.823.13c.845-1.014 2.962-3.73 2.816-5.264-.218-2.274-1.605-2.394-1.605-2.394l-.644 1.903-.533-.217c.161-2.87.332-6.053.413-8.07C9.426.728 7.136.548 7.019 2.035c-.09 1.133-.336 5.3-.336 5.3l-.574.068s-.656-4.79-.75-5.57C5.197.51 3.062.561 3.185 2.052c.086 1.027.582 5.607.582 5.607S1.353 8.596.392 9.806c.766 2.102 1.715 6.168 1.715 6.168ZM24.17 15.81l-6.634-.082c-.31-1.486-2.19-4.521-5.76-6.074.622-1.572 1.69-1.774 3.066-1.287.248.09.875.415 1.32.609.057.227.334 1.223.334 1.223l.448-.07c-.002-1.275.002-5.088.126-8.844.046-1.362 1.876-1.332 1.95.19.056 1.158.087 5.35.087 5.35l.584.087s.638-4.789.749-5.75c.155-1.354 2.123-1.258 1.956.26-.12 1.044-.727 6.055-.727 6.055l.45.184s1.264-4.456 1.499-5.38c.334-1.319 2.22-.917 1.844.56-.252.999-1.577 5.615-1.577 5.615l.404.205s1.601-3.14 1.918-3.827c.503-1.117 2.134-.36 1.56.89a56.59 56.59 0 0 0-3.596 10.087Z"/></g><defs><clipPath id="a"><path fill="#fff" d="M0 0h28v16H0z"/></clipPath></defs></svg>