<svg width="18" height="18" fill="none" xmlns="http://www.w3.org/2000/svg"><path fill-rule="evenodd" clip-rule="evenodd" d="m15.367 16.889-7.35.84c-.552-1.6-3.056-4.694-7.224-5.91.468-1.826 1.622-2.2 3.212-1.854.286.064 1.026.336 1.544.488.096.244.542 1.306.542 1.306l.486-.14a303.94 303.94 0 0 1-1.102-9.8C5.335.307 7.363.083 7.659 1.755c.224 1.274.846 5.906.846 5.906l.658.014s.034-5.386.022-6.464c-.018-1.52 2.172-1.69 2.2.012.014 1.172.046 6.8.046 6.8l.522.14s.774-5.106.904-6.16c.184-1.506 2.326-1.326 2.118.36-.138 1.14-.956 6.432-.956 6.432l.476.17s1.33-3.698 1.584-4.502c.4-1.306 2.31-.698 1.85.766a63.09 63.09 0 0 0-2.562 11.66Z" fill="rgb(3, 104, 104)"/></svg>