<svg width="30" height="16" fill="none" xmlns="http://www.w3.org/2000/svg"><g clip-path="url(#a)" fill-rule="evenodd" clip-rule="evenodd" fill="#000"><path d="m4.286 16.434 6.671-.337c.767-1.06 2.672-3.89 2.42-5.396-.371-2.233-1.75-2.255-1.75-2.255l-.506 1.925-.431-.142c.008-2.898 0-6.125-.064-8.154-.043-1.32-1.87-1.22-1.885.258-.01 1.126.119 5.195.119 5.195l-.563.106s-.8-4.62-.942-5.545C7.154.782 5.248.948 5.468 2.414 5.623 3.422 6.4 8.26 6.4 8.26l-.429.195s-1.395-4.274-1.657-5.16c-.373-1.268-2.187-.807-1.767.613.281.958 1.74 5.387 1.74 5.387l-.384.213S2.233 6.522 1.9 5.868c-.53-1.065-2.084-.27-1.48.924a54.924 54.924 0 0 1 3.866 9.642ZM26.139 15.919l-6.635-.082c-.311-1.486-2.19-4.522-5.761-6.075.622-1.572 1.691-1.774 3.067-1.287.247.09.875.415 1.319.609.058.228.335 1.223.335 1.223l.448-.07a272.42 272.42 0 0 1 .126-8.844c.046-1.361 1.876-1.332 1.95.19.056 1.158.086 5.35.086 5.35l.584.087s.639-4.789.75-5.75c.155-1.354 2.123-1.258 1.956.26-.12 1.044-.727 6.056-.727 6.056l.449.183s1.265-4.456 1.5-5.38c.333-1.318 2.219-.916 1.844.56-.252 1-1.577 5.616-1.577 5.616l.404.205s1.601-3.14 1.918-3.827c.503-1.117 2.134-.36 1.56.89a56.588 56.588 0 0 0-3.596 10.086Z"/></g><defs><clipPath id="a"><path fill="#fff" d="M0 0h30v16H0z"/></clipPath></defs></svg>