<svg aria-hidden="true" style="position: absolute; width: 0; height: 0; overflow: hidden;" version="1.1" xmlns="http://www.w3.org/2000/svg" xmlns:xlink="http://www.w3.org/1999/xlink">
<defs>
<symbol id="icon-earth" viewBox="0 0 32 32">
<path d="M16.56 32c-22.526 0-21.511-32-0.364-32 21.074 0 20.949 32 0.364 32zM16.174 2.149c-0.009-0-0.019-0-0.030-0-1.062 0-2.1 0.1-3.106 0.292l0.103-0.016 0.386 2.197-4.629 3.264-4.066-0.249c-0.367 0.504-0.721 1.078-1.031 1.678l-0.035 0.075 0.852 7.934 2.508 3.204-2.574 3.627c2.293 3.337 6.245 5.696 11.932 5.696 8.188 0 12.633-5.858 13.28-12.181l-1.924-1.737-2.818-1.067-0.459 0.693 1.093 1.141 0.846 0.128 0.364 1.218-2.661 1.337-1.822-3.157-0.631 1.422 1.374 3.004 1.689 0.489-2.72 1.449-3.545 5.052-3.012 0.236-0.66-2.9 0.5-4.274-3.452-0.914-1.138-2.709 0.544-2.61 3.28-1.339 3.102 1.765 1.637-0.533 2.439 0.658 0.555-3.093-3.14-1.031-0.036 2.014-1.995-0.091-0.171-2.132-2.466 0.54 0.187-1.874-1.049-1.209 1.595-1.451 2.596 1.449 0.814-1.714 2.057-0.871 1.369 0.603 1.394-0.279 0.601-1.451c-2.089-1.428-4.724-2.286-7.929-2.286z"></path>
</symbol>
<symbol id="icon-refresh" viewBox="0 0 26 32">
<path d="M11.482 15.418l6.551-2.177c-1.207-0.996-2.953-1.348-5.002-1.348-9.324 0-9.265 14.247-0.16 14.247 4.004 0 6.665-2.298 7.556-5.047l3.772 1.149c-1.044 4.701-4.673 8.675-11.481 8.675-15.215 0-15.312-23.633 0.266-23.633 2.375 0 4.26 0.841 5.857 1.935l-3.593-6.058 4.256-2.077 5.372 12.736-11.324 5.839-2.071-4.239z"></path>
</symbol>
<symbol id="icon-poop" viewBox="0 0 38 32">
<path d="M2.234 26.069c-2.987-3.52-2.133-9.734 2.56-10.985 1.707 5.973 8.61 8.085 15.066 8.085s11.52-2.496 12.489-7.253c4.561 1.041 7.019 5.713 3.584 10.129-6.511 8.346-27.789 7.031-33.698 0.021zM19.776 20.642c-5.457 0-12.318-2.56-12.318-6.993 0-5.572 10.155-5.751 9.254-12.467 4.156 0.7 6.174 2.705 6.174 5.875 0.001 0.034 0.001 0.075 0.001 0.116 0 1.993-1.113 3.726-2.751 4.611l-0.028 0.014 1.233 1.685s3.264-2.065 4.267-2.624c2.684 0.363 4.207 1.843 4.207 4.19 0.013 3.422-5.508 5.594-10.039 5.594z"></path>
</symbol>
<symbol id="icon-count5" viewBox="0 0 32 32">
<path d="M27.319 30.025l-13.067 1.493c-0.981-2.844-5.433-8.345-12.843-10.507 0.832-3.246 2.884-3.911 5.71-3.296 0.508 0.114 1.824 0.597 2.745 0.868 0.171 0.434 0.964 2.322 0.964 2.322l0.864-0.249c-0.491-3.193-1.184-9.172-1.779-15.18l-0.18-2.242c-0.249-2.688 3.356-3.086 3.883-0.114 0.398 2.265 1.504 10.5 1.504 10.5l1.17 0.025s0.060-9.575 0.039-11.492c-0.032-2.702 3.861-3.004 3.911 0.021 0.025 2.084 0.082 12.089 0.082 12.089l0.928 0.249s1.376-9.077 1.607-10.951c0.327-2.677 4.135-2.357 3.765 0.64-0.245 2.027-1.7 11.435-1.7 11.435l0.846 0.302s2.364-6.574 2.816-8.004c0.711-2.322 4.107-1.241 3.289 1.362-1.991 5.938-3.588 12.951-4.498 20.177l-0.057 0.552z"></path>
</symbol>
<symbol id="icon-count4" viewBox="0 0 25 32">
<path d="M20.623 29.538l-12.837 1.475c-1.799-1.779-6.333-6.572-6.333-9.526 0-4.379 2.624-4.861 2.624-4.861l1.576 3.513 0.778-0.408c-0.936-5.528-1.947-11.688-2.469-15.579-0.337-2.533 3.18-2.924 3.678-0.108 0.377 2.146 1.425 9.95 1.425 9.95l1.108 0.024s0.057-9.071 0.034-10.88c-0.030-2.557 3.658-2.846 3.705 0.020 0.024 1.974 0.077 11.453 0.077 11.453l0.879 0.236s1.304-8.6 1.523-10.375c0.31-2.536 3.917-2.233 3.567 0.61-0.232 1.917-1.61 10.833-1.61 10.833l0.802 0.283s2.24-6.228 2.668-7.582c0.674-2.2 3.891-1.176 3.116 1.293-1.885 5.623-3.397 12.262-4.258 19.105l-0.054 0.523z"></path>
</symbol>
<symbol id="icon-count3" viewBox="0 0 23 32">
<path d="M20.597 30.076l-13.714 1.575c-1.899-1.877-6.684-6.937-6.684-10.055 0-4.622 2.77-5.132 2.77-5.132l1.66 3.71 0.825-0.432c-0.988-5.835-2.055-12.338-2.606-16.444-0.356-2.674 3.477-3.084 4.004-0.114 0.398 2.265 1.703 10.503 1.703 10.503l1.166 0.025s0.192-9.575 0.171-11.484c-0.036-2.699 3.858-3.004 3.911 0.021 0.025 2.084 0.192 11.733 0.192 11.733l0.928 0.053s1.18-8.555 1.422-10.428c0.331-2.677 4.377-2.357 4.011 0.644-0.249 2.023-1.497 10.482-1.497 10.482s2.585 0.779 4.032 2.396c-1.383 4.35-2.293 12.948-2.293 12.948z"></path>
</symbol>
<symbol id="icon-count2" viewBox="0 0 22 32">
<path d="M19.729 29.149l-12.992 1.492c-1.799-1.779-6.333-6.573-6.333-9.526 0-4.379 2.624-4.861 2.624-4.861l1.576 3.513 0.977-0.512c0.005 1.151-0.789-4.072-1.546-9.307l-0.714-6.013c-0.337-2.538 3.998-3.298 4.493-0.483 0.377 2.146 1.607 10.051 1.607 10.051l1.108 0.024s0.377-9.256 0.414-10.762c0.067-2.557 4.15-2.846 4.187 0.020 0.024 1.974-0.088 10.803-0.088 10.803s4.776 1.347 6.831 3.48c-1.078 4.15-2.146 12.079-2.146 12.079z"></path>
</symbol>
<symbol id="icon-count1" viewBox="0 0 23 32">
<path d="M6.748 31.726c-1.867-1.877-6.549-6.923-6.549-10.364 0-4.622 3.2-5.159 3.2-5.159l1.234 3.844 1.113-0.43c-0.021-5.536-0.060-13.191-0.142-16.743-0.071-2.891 4.782-3.31 4.907-0.075 0.053 1.579 0.302 6.197 0.565 10.24 4.42 0.331 9.497 2.222 12.014 4.935-0.971 3.78-2.094 11.993-2.094 11.993l-14.247 1.76z"></path>
</symbol>
</defs>
</svg>
